  <svg width="24" height="26" viewBox="0 0 24 26" fill="none" xmlns="http://www.w3.org/2000/svg">
              <path fill-rule="evenodd" clip-rule="evenodd"
                d="M3 0C1.34315 0 0 1.34315 0 3V23C0 24.6569 1.34315 26 3 26H17.6441C18.0099 25.7493 18.3256 25.4162 18.5909 25.036C18.8224 24.7044 19.0068 24.3482 19.1457 24H4.5C4.22386 24 4 23.7761 4 23.5C4 23.2239 4.22386 23 4.5 23H19.429C19.4555 22.8356 19.4686 22.6835 19.4686 22.5492V22.0492H19.9686C20.8687 22.0492 22.0944 21.8163 23.0844 21.409C23.4409 21.2622 23.7516 21.099 24 20.9266V3C24 1.34315 22.6569 0 21 0H3ZM23.9991 22.0881C23.8269 22.1767 23.6477 22.2585 23.4649 22.3337C22.518 22.7234 21.3893 22.9701 20.4347 23.0331C20.3301 23.8237 19.9844 24.7867 19.4109 25.6083C19.3177 25.7419 19.2175 25.873 19.1103 26H20C22.1797 26 23.9522 24.2565 23.9991 22.0881ZM4 7.5C4 7.22386 4.22386 7 4.5 7H20.5C20.7761 7 21 7.22386 21 7.5C21 7.77614 20.7761 8 20.5 8H4.5C4.22386 8 4 7.77614 4 7.5ZM4.5 11C4.22386 11 4 11.2239 4 11.5C4 11.7761 4.22386 12 4.5 12H20.5C20.7761 12 21 11.7761 21 11.5C21 11.2239 20.7761 11 20.5 11H4.5ZM4 15.5C4 15.2239 4.22386 15 4.5 15H20.5C20.7761 15 21 15.2239 21 15.5C21 15.7761 20.7761 16 20.5 16H4.5C4.22386 16 4 15.7761 4 15.5ZM4.5 19C4.22386 19 4 19.2239 4 19.5C4 19.7761 4.22386 20 4.5 20H20.5C20.7761 20 21 19.7761 21 19.5C21 19.2239 20.7761 19 20.5 19H4.5ZM4 3.5C4 3.22386 4.22386 3 4.5 3H11.5C11.7761 3 12 3.22386 12 3.5C12 3.77614 11.7761 4 11.5 4H4.5C4.22386 4 4 3.77614 4 3.5Z"
                fill="white" />
            </svg>