<svg width="180" height="34" viewBox="0 0 180 34" fill="none" xmlns="http://www.w3.org/2000/svg">
<path d="M0 11.8896H3.88365V7.44145H12.0442V11.8896H15.891V0.144716H12.0442V4.34148H3.88365V0.144716H0V11.8896ZM17.2634 11.8896H21.6182L22.7571 9.81022H30.6022L31.7821 11.8896H36.0959L29.152 0.144716H24.1295L17.2634 11.8896ZM26.6407 2.87909L29.152 7.25484H24.1663L26.6407 2.87909ZM37.4682 11.8896H50.0614V8.86195H41.3519V0.144716H37.4682V11.8896ZM51.6673 11.8896H64.2646V8.86195H55.5551V0.144716H51.6673V11.8896ZM66.1081 11.8896H69.9918V0.144716H66.1081V11.8896ZM72.8144 11.8896H85.1331C87.329 11.8896 88.9758 11.3412 88.9758 8.75151C88.9758 7.00349 88.349 6.16185 86.6612 5.94478V5.9067C87.7181 5.61346 88.5047 5.21358 88.5047 3.21041C88.5047 0.910187 87.0135 0.144716 83.9533 0.144716H72.8103V11.8896H72.8144ZM76.6612 7.22056H83.6051C84.4285 7.22056 85.0184 7.40336 85.0184 8.20311C85.0184 8.86195 84.4285 9.04475 83.6051 9.04475H76.6612V7.22056ZM76.6612 2.95144H83.5272C84.2319 2.95144 84.6661 3.2066 84.6661 3.89971C84.6661 4.55855 84.236 4.77563 83.5272 4.77563H76.6612V2.95144ZM91.3314 7.6966C91.3314 10.6138 92.9414 12 96.5096 12H102.04C105.612 12 107.218 10.6138 107.218 7.6966V0.144716H103.335V6.92732C103.335 8.42399 102.786 9.00666 101.18 9.00666H97.3372C95.7681 9.00666 95.1782 8.42399 95.1782 6.92732V0.144716H91.3355V7.6966H91.3314ZM113.695 3.06189H119.738C120.955 3.06189 121.54 3.24468 121.54 4.3034V4.66899C121.54 5.50682 121.147 5.9105 120.09 5.9105H113.695V3.06189ZM109.812 11.8896H113.695V8.82387H119.775C120.991 8.82387 121.385 9.22374 121.385 10.4652V11.8896H125.227V9.88258C125.227 7.95176 124.289 7.47572 123.146 7.29292V7.25865C124.916 6.85878 125.305 5.94478 125.305 4.37956V3.61028C125.305 1.53094 124.482 0.144716 121.499 0.144716H109.807V11.8896H109.812ZM126.993 3.06189H132.409V11.8896H136.292V3.06189H141.745V0.144716H126.993V3.06189ZM143.159 7.76896C143.159 11.1964 145.236 11.9962 148.689 11.9962H154.928C158.419 11.9962 160.459 11.1964 160.459 7.76896V4.26531C160.459 0.837829 158.419 0 154.928 0H148.689C145.236 0 143.159 0.837829 143.159 4.26531V7.76896ZM147.12 5.36211C147.12 3.90352 147.513 3.02761 149.553 3.02761H154.068C156.108 3.02761 156.501 3.89971 156.501 5.36211V6.63789C156.501 8.35163 156.108 9.01047 154.302 9.01047H149.32C147.517 9.01047 147.124 8.35544 147.124 6.63789V5.36211H147.12ZM162.814 11.8896H166.698V3.35513H166.735L173.994 11.8896H180V0.144716H176.112V8.67915H176.071L168.816 0.144716H162.814V11.8896Z" fill="white"/>
<path d="M0.649 27.206C0.649 29.538 1.958 30.088 4.158 30.088H8.096C10.549 30.088 11.033 29.032 11.033 27.69V26.942H8.591C8.591 27.932 8.261 28.042 7.161 28.042H4.554C3.399 28.042 3.157 27.602 3.157 26.447V25.589C3.157 24.599 3.399 23.994 4.686 23.994H7.348C8.074 23.994 8.492 24.159 8.492 24.731V24.951H10.934C10.956 22.696 10.505 21.948 7.029 21.948H4.158C1.958 21.948 0.649 22.498 0.649 24.83V27.206ZM11.8088 27.426C11.8088 29.824 13.2828 30.088 14.6798 30.088H16.2638C17.7928 30.088 19.0468 29.78 19.0468 28.372V28.13H17.0668C17.0668 28.46 17.0118 28.768 15.8678 28.768H15.2188C14.3388 28.768 13.9208 28.603 13.9208 28.009V27.668H19.0468V26.722C19.0468 24.775 18.1228 24.302 15.8788 24.302H14.4048C12.8648 24.302 11.8088 24.764 11.8088 26.887V27.426ZM13.9208 26.414C13.9208 25.743 14.0858 25.622 15.4608 25.622C16.6928 25.622 17.0008 25.743 17.0008 26.414H13.9208ZM19.8078 30H21.9198V27.041C21.9198 26.172 22.3488 25.952 23.2508 25.952C24.5268 25.952 24.7798 26.128 24.7798 26.821V30H26.8918V26.909C26.8918 26.172 27.3098 25.952 28.3218 25.952C29.5538 25.952 29.7518 26.216 29.7518 26.986V30H31.8638V26.843C31.8638 25.237 31.1708 24.302 29.2458 24.302H28.5968C27.3978 24.302 26.9468 24.599 26.5948 25.611C26.1988 24.731 25.5168 24.302 24.5158 24.302H23.7128C22.6788 24.302 21.9528 24.687 21.8428 25.49H21.8208V24.39H19.8078V30ZM32.6224 27.426C32.6224 29.824 34.0964 30.088 35.4934 30.088H37.0774C38.6064 30.088 39.8604 29.78 39.8604 28.372V28.13H37.8804C37.8804 28.46 37.8254 28.768 36.6814 28.768H36.0324C35.1524 28.768 34.7344 28.603 34.7344 28.009V27.668H39.8604V26.722C39.8604 24.775 38.9364 24.302 36.6924 24.302H35.2184C33.6784 24.302 32.6224 24.764 32.6224 26.887V27.426ZM34.7344 26.414C34.7344 25.743 34.8994 25.622 36.2744 25.622C37.5064 25.622 37.8144 25.743 37.8144 26.414H34.7344ZM40.7205 30H42.8325V27.173C42.8325 26.37 43.3715 25.952 44.2735 25.952H44.7575C45.6815 25.952 46.1215 26.227 46.1215 26.777V30H48.2335V26.777C48.2335 24.357 46.4075 24.302 45.0985 24.302C43.9655 24.302 43.2285 24.511 42.8545 25.292H42.8325V24.39H40.7205V30ZM49.8662 28.13C49.8662 29.681 50.9882 30.088 52.2862 30.088H53.1222C54.8052 30.088 55.5092 29.274 55.5092 28.207V27.525H53.6612V27.899C53.6612 28.416 53.4742 28.57 52.7922 28.57C52.2862 28.57 51.9782 28.482 51.9782 28.064V25.908H55.2562V24.39H51.9782V23.07H49.8662V24.39H48.8102V25.908H49.8662V28.13ZM58.6001 24.39H56.4881V30H58.6001V24.39ZM58.6001 22.036H56.4881V23.686H58.6001V22.036ZM59.8398 30H61.9518V27.173C61.9518 26.37 62.4908 25.952 63.3928 25.952H63.8768C64.8008 25.952 65.2408 26.227 65.2408 26.777V30H67.3528V26.777C67.3528 24.357 65.5268 24.302 64.2178 24.302C63.0848 24.302 62.3478 24.511 61.9738 25.292H61.9518V24.39H59.8398V30ZM68.3366 27.272C68.3366 28.79 68.9636 29.604 71.0096 29.604H72.1206C73.2426 29.604 73.5946 29.439 74.0126 29.021V29.395C74.0126 30.341 73.5616 30.638 72.6376 30.638H71.1086C70.7676 30.638 70.5916 30.473 70.5916 30.209H68.4136C68.4136 31.617 69.2166 31.958 70.6356 31.958H72.9676C75.6186 31.958 75.9926 30.814 75.9926 29.648V24.39H74.0126V25.16H73.9906C73.4626 24.434 73.2096 24.302 72.1426 24.302H70.9106C69.2276 24.302 68.3366 24.764 68.3366 26.502V27.272ZM71.6696 28.086C70.6246 28.086 70.3826 27.811 70.3826 26.964C70.3826 26.106 70.6246 25.82 71.6696 25.82H72.7036C73.7486 25.82 73.9906 26.106 73.9906 26.964C73.9906 27.811 73.7486 28.086 72.7036 28.086H71.6696Z" fill="white"/>
<line y1="17" x2="180" y2="17" stroke="white" stroke-width="2"/>
</svg>
