  <svg width="16" height="16" viewBox="0 0 16 16" fill="none" xmlns="http://www.w3.org/2000/svg">
                      <path
                        d="M4.74601 12.0968L7.77851 9.06435L10.811 12.0968L11.6955 11.2124L8.66298 8.17987L11.6955 5.14738L10.811 4.2629L7.77851 7.2954L4.74601 4.2629L3.86153 5.14738L6.89403 8.17987L3.86153 11.2124L4.74601 12.0968ZM1.46081 15.7611C1.12386 15.7611 0.829036 15.6348 0.576328 15.3821C0.32362 15.1293 0.197266 14.8345 0.197266 14.4976V1.86217C0.197266 1.52523 0.32362 1.2304 0.576328 0.977695C0.829036 0.724987 1.12386 0.598633 1.46081 0.598633H14.0962C14.4332 0.598633 14.728 0.724987 14.9807 0.977695C15.2334 1.2304 15.3597 1.52523 15.3597 1.86217V14.4976C15.3597 14.8345 15.2334 15.1293 14.9807 15.3821C14.728 15.6348 14.4332 15.7611 14.0962 15.7611H1.46081ZM1.46081 14.4976H14.0962V1.86217H1.46081V14.4976ZM1.46081 1.86217V14.4976V1.86217Z"
                        fill="#0D91F0" />
                    </svg>