 <svg width="24" height="24" viewBox="0 0 24 24" fill="none" xmlns="http://www.w3.org/2000/svg">
          <path fill-rule="evenodd" clip-rule="evenodd"
            d="M12.4 4.8C11.0745 4.8 10 3.72548 10 2.4C10 1.07452 11.0745 0 12.4 0C13.7255 0 14.8 1.07452 14.8 2.4C14.8 3.72548 13.7255 4.8 12.4 4.8ZM12.4 14.4C11.0745 14.4 10 13.3255 10 12C10 10.6745 11.0745 9.6 12.4 9.6C13.7255 9.6 14.8 10.6745 14.8 12C14.8 13.3255 13.7255 14.4 12.4 14.4ZM10 21.6C10 22.9255 11.0745 24 12.4 24C13.7255 24 14.8 22.9255 14.8 21.6C14.8 20.2745 13.7255 19.2 12.4 19.2C11.0745 19.2 10 20.2745 10 21.6Z"
            fill="white" />
        </svg>