<svg width="20" height="16" viewBox="0 0 20 16" fill="none" xmlns="http://www.w3.org/2000/svg">
                      <path
                        d="M18.3685 5.09999V2.02012H15.2887V0.598633H18.3685C18.7476 0.598633 19.0793 0.740781 19.3636 1.02508C19.6479 1.30937 19.79 1.64105 19.79 2.02012V5.09999H18.3685ZM0.836914 5.09999V2.02012C0.836914 1.64105 0.979062 1.30937 1.26336 1.02508C1.54766 0.740781 1.87933 0.598633 2.2584 0.598633H5.33828V2.02012H2.2584V5.09999H0.836914ZM15.2887 15.7611V14.3396H18.3685V11.2598H19.79V14.3396C19.79 14.7187 19.6479 15.0504 19.3636 15.3347C19.0793 15.619 18.7476 15.7611 18.3685 15.7611H15.2887ZM2.2584 15.7611C1.87933 15.7611 1.54766 15.619 1.26336 15.3347C0.979062 15.0504 0.836914 14.7187 0.836914 14.3396V11.2598H2.2584V14.3396H5.33828V15.7611H2.2584ZM3.67988 12.9181V3.4416H16.9471V12.9181H3.67988ZM5.10136 11.4967H15.5256V4.86308H5.10136V11.4967ZM5.10136 11.4967V4.86308V11.4967Z"
                        fill="#0D91F0" />
                    </svg>