<svg width="20" height="20" viewBox="0 0 20 20" fill="none" xmlns="http://www.w3.org/2000/svg">
<path d="M20 4.58376V16.6665C19.9974 17.5499 19.6135 18.3964 18.9323 19.0211C18.251 19.6457 17.3278 19.9977 16.3644 20.0001H9.72885C9.24684 20.0009 8.7695 19.9135 8.32471 19.7432C7.87992 19.573 7.47658 19.3231 7.13825 19.0083L0 12.3583C0 12.3583 1.1451 11.3328 1.18178 11.3165C1.38071 11.1581 1.6361 11.072 1.89957 11.0747C2.09085 11.0754 2.27868 11.1214 2.44485 11.2083C2.48154 11.2165 6.36197 13.2583 6.36197 13.2583V3.33376C6.36171 3.16954 6.39679 3.00689 6.4652 2.85512C6.53362 2.70336 6.63402 2.56546 6.76066 2.44934C6.8873 2.33322 7.03768 2.24116 7.20319 2.17842C7.3687 2.11569 7.54609 2.08352 7.72518 2.08376C7.90477 2.0828 8.08279 2.11444 8.24899 2.17685C8.41519 2.23926 8.56628 2.33121 8.69354 2.4474C8.82081 2.5636 8.92175 2.70173 8.99054 2.85386C9.05932 3.00598 9.0946 3.16908 9.09433 3.33376V9.16739H10.0035V1.25012C10.0032 1.08606 10.0382 0.923553 10.1065 0.771906C10.1748 0.62026 10.275 0.482447 10.4015 0.36635C10.5279 0.250253 10.678 0.15815 10.8433 0.0953092C11.0086 0.0324686 11.1858 0.000123223 11.3647 0.000123397C11.5438 -0.000115991 11.7212 0.0320529 11.8867 0.0947864C12.0522 0.15752 12.2026 0.249585 12.3292 0.365706C12.4558 0.481827 12.5563 0.619721 12.6247 0.771486C12.6931 0.923251 12.7282 1.0859 12.7279 1.25012V9.16648H13.637V2.08376C13.6368 1.91954 13.6719 1.75689 13.7403 1.60512C13.8087 1.45336 13.9091 1.31546 14.0357 1.19934C14.1624 1.08322 14.3128 0.991156 14.4783 0.928423C14.6438 0.865689 14.8212 0.83352 15.0002 0.83376C15.1793 0.83352 15.3567 0.865689 15.5222 0.928423C15.6877 0.991156 15.8381 1.08322 15.9648 1.19934C16.0914 1.31546 16.1918 1.45336 16.2602 1.60512C16.3286 1.75689 16.3637 1.91954 16.3635 2.08376V9.16739H17.2726V4.58376C17.2723 4.41954 17.3074 4.25689 17.3758 4.10512C17.4442 3.95336 17.5446 3.81546 17.6713 3.69934C17.7979 3.58322 17.9483 3.49116 18.1138 3.42842C18.2793 3.36569 18.4567 3.33352 18.6358 3.33376C18.815 3.3334 18.9925 3.36548 19.1581 3.42816C19.3237 3.49084 19.4742 3.58289 19.601 3.69902C19.7277 3.81515 19.8282 3.95309 19.8967 4.10491C19.9651 4.25674 20.0003 4.41946 20 4.58376Z" fill="#C9CFD4"/>
</svg>