<svg width="24" height="25" viewBox="0 0 24 25" fill="none" xmlns="http://www.w3.org/2000/svg">
<g opacity="0.1">
<path d="M24 5.53454V20.0338C23.9969 21.0939 23.5362 22.1097 22.7187 22.8593C21.9013 23.6089 20.7934 24.0313 19.6373 24.0342H11.6746C11.0962 24.0351 10.5234 23.9303 9.98965 23.7259C9.4559 23.5216 8.9719 23.2218 8.5659 22.844L0 14.864C0 14.864 1.37412 13.6334 1.41813 13.6138C1.65686 13.4237 1.96332 13.3205 2.27948 13.3236C2.50902 13.3245 2.73442 13.3798 2.93383 13.484C2.97785 13.4938 7.63437 15.944 7.63437 15.944V4.03454C7.63405 3.83748 7.67615 3.6423 7.75825 3.46018C7.84034 3.27806 7.96083 3.11259 8.11279 2.97324C8.26476 2.8339 8.44522 2.72342 8.64383 2.64814C8.84244 2.57286 9.0553 2.53426 9.27022 2.53454C9.48573 2.53339 9.69935 2.57136 9.89879 2.64625C10.0982 2.72114 10.2795 2.83148 10.4323 2.97092C10.585 3.11035 10.7061 3.27611 10.7886 3.45866C10.8712 3.64121 10.9135 3.83693 10.9132 4.03454V11.0349H12.0042V1.53418C12.0038 1.3373 12.0459 1.1423 12.1278 0.960321C12.2098 0.778345 12.33 0.61297 12.4818 0.473653C12.6335 0.334337 12.8136 0.223813 13.012 0.148404C13.2103 0.0729955 13.4229 0.0341811 13.6376 0.0341813C13.8525 0.033894 14.0654 0.0724966 14.264 0.147777C14.4626 0.223057 14.6431 0.333535 14.7951 0.47288C14.947 0.612225 15.0675 0.777698 15.1496 0.959816C15.2317 1.14193 15.2738 1.33712 15.2735 1.53418V11.0338H16.3644V2.53454C16.3641 2.33748 16.4062 2.1423 16.4883 1.96018C16.5704 1.77806 16.6909 1.61259 16.8429 1.47324C16.9948 1.3339 17.1753 1.22342 17.3739 1.14814C17.5725 1.07286 17.7854 1.03426 18.0003 1.03454C18.2152 1.03426 18.4281 1.07286 18.6267 1.14814C18.8253 1.22342 19.0057 1.3339 19.1577 1.47324C19.3097 1.61259 19.4302 1.77806 19.5123 1.96018C19.5944 2.1423 19.6365 2.33748 19.6361 2.53454V11.0349H20.7271V5.53454C20.7268 5.33748 20.7689 5.1423 20.851 4.96018C20.9331 4.77806 21.0536 4.61259 21.2055 4.47324C21.3575 4.3339 21.538 4.22342 21.7366 4.14814C21.9352 4.07286 22.148 4.03426 22.363 4.03454C22.578 4.03411 22.791 4.07261 22.9897 4.14782C23.1885 4.22304 23.3691 4.3335 23.5211 4.47286C23.6732 4.61222 23.7938 4.77774 23.876 4.95993C23.9582 5.14212 24.0003 5.33739 24 5.53454Z" fill="#C9CFD4"/>
</g>
</svg>
