<svg width="14" height="26" viewBox="0 0 14 26" fill="none" xmlns="http://www.w3.org/2000/svg">
            <path d="M12 26C11.4333 26 10.9583 25.8134 10.575 25.4401C10.1917 25.0668 10 24.6042 10 24.0524V1.94757C10 1.39576 10.1917 0.933209 10.575 0.559926C10.9583 0.186642 11.4333 0 12 0C12.5667 0 13.0417 0.186642 13.425 0.559926C13.8083 0.933209 14 1.39576 14 1.94757V24.0524C14 24.6042 13.8083 25.0668 13.425 25.4401C13.0417 25.8134 12.5667 26 12 26Z" fill="white"/>
            <path d="M2 26C1.43333 26 0.958334 25.8134 0.575001 25.4401C0.191667 25.0668 0 24.6042 0 24.0524V1.94757C0 1.39576 0.191667 0.933209 0.575001 0.559926C0.958334 0.186642 1.43333 0 2 0C2.56667 0 3.04167 0.186642 3.425 0.559926C3.80834 0.933209 4 1.39576 4 1.94757V24.0524C4 24.6042 3.80834 25.0668 3.425 25.4401C3.04167 25.8134 2.56667 26 2 26Z" fill="white"/>
            </svg>