  <svg width="36" height="21" viewBox="0 0 36 21" fill="none" xmlns="http://www.w3.org/2000/svg">
                    <path
                      d="M33.1218 20.6434L20.5584 12.001C20.0102 11.6372 19.736 11.1368 19.736 10.5C19.736 9.8632 20.0102 9.36285 20.5584 8.99896L33.1218 0.356611C33.731 -0.0679255 34.3629 -0.113412 35.0178 0.220152C35.6726 0.553717 36 1.08439 36 1.81216V19.1878C36 19.9156 35.6726 20.4463 35.0178 20.7798C34.3629 21.1134 33.731 21.0679 33.1218 20.6434ZM13.3401 20.6434L0.77665 12.001C0.258883 11.6372 0 11.1368 0 10.5C0 9.8632 0.258883 9.36285 0.77665 8.99896L13.3401 0.356611C13.9492 -0.0679255 14.5812 -0.113412 15.236 0.220152C15.8909 0.553717 16.2183 1.08439 16.2183 1.81216V19.1878C16.2183 19.9156 15.8909 20.4463 15.236 20.7798C14.5812 21.1134 13.9492 21.0679 13.3401 20.6434ZM12.5635 15.7309V5.2691L4.93401 10.5L12.5635 15.7309ZM32.3452 15.7309V5.2691L24.7614 10.5L32.3452 15.7309Z"
                      fill="#6C7880" />
                  </svg>