 <svg width="297" height="22" viewBox="0 0 297 22" fill="none" xmlns="http://www.w3.org/2000/svg">
                    <line x1="18" y1="11.5" x2="218" y2="11.5" stroke="#6C7880" />
                    <line x1="18" y1="11" x2="163" y2="11" stroke="#F80417" stroke-width="2" />
                    <line x1="17.5" y1="2.18557e-08" x2="17.5" y2="22" stroke="#F80417" />
                    <line x1="218.5" y1="2.18557e-08" x2="218.5" y2="22" stroke="#6C7880" />
                    <rect x="159" y="20" width="20" height="8" rx="4" transform="rotate(-90 159 20)" fill="#F80417" />
                    <path
                      d="M235.747 17H230.203V16.0156H232.418V8.40039L230.148 9.07715V8.01074L233.539 6.97852V16.0156H235.747V17ZM243.109 17H237.203V16.002L240.061 13.1377C240.79 12.4085 241.309 11.8024 241.619 11.3193C241.934 10.8317 242.091 10.3122 242.091 9.76074C242.091 9.19564 241.929 8.75814 241.605 8.44824C241.282 8.13835 240.822 7.9834 240.225 7.9834C239.35 7.9834 238.511 8.3571 237.709 9.10449V7.92871C238.475 7.33171 239.366 7.0332 240.382 7.0332C241.257 7.0332 241.945 7.27018 242.446 7.74414C242.948 8.2181 243.198 8.85384 243.198 9.65137C243.198 10.2803 243.025 10.8955 242.679 11.4971C242.332 12.0941 241.71 12.8369 240.812 13.7256L238.55 15.9609V15.9883H243.109V17ZM244.989 16.6377V15.4277C245.659 15.9564 246.416 16.2207 247.259 16.2207C247.942 16.2207 248.487 16.0498 248.893 15.708C249.303 15.3662 249.508 14.9059 249.508 14.3271C249.508 13.0465 248.599 12.4062 246.78 12.4062H245.967V11.4561H246.739C248.357 11.4561 249.166 10.8545 249.166 9.65137C249.166 8.53939 248.549 7.9834 247.313 7.9834C246.625 7.9834 245.976 8.2181 245.365 8.6875V7.59375C245.994 7.22005 246.737 7.0332 247.594 7.0332C248.419 7.0332 249.077 7.25195 249.569 7.68945C250.066 8.12695 250.314 8.6875 250.314 9.37109C250.314 10.6608 249.658 11.4902 248.346 11.8594V11.8867C249.052 11.9551 249.613 12.2035 250.027 12.6318C250.447 13.0557 250.656 13.5866 250.656 14.2246C250.656 15.1042 250.34 15.8151 249.706 16.3574C249.077 16.8952 248.245 17.1641 247.211 17.1641C246.281 17.1641 245.541 16.9886 244.989 16.6377ZM253.165 17.1504C252.955 17.1504 252.775 17.0752 252.625 16.9248C252.479 16.7744 252.406 16.5944 252.406 16.3848C252.406 16.1751 252.479 15.9951 252.625 15.8447C252.775 15.6898 252.955 15.6123 253.165 15.6123C253.379 15.6123 253.562 15.6898 253.712 15.8447C253.862 15.9951 253.938 16.1751 253.938 16.3848C253.938 16.5944 253.862 16.7744 253.712 16.9248C253.562 17.0752 253.379 17.1504 253.165 17.1504ZM261.744 14.3955H260.486V17H259.379V14.3955H254.771V13.6641L259.133 7.19727H260.486V13.4863H261.744V14.3955ZM259.379 13.4863V9.24805C259.379 8.94727 259.388 8.61003 259.406 8.23633H259.379C259.315 8.40039 259.19 8.65104 259.003 8.98828L255.988 13.4863H259.379ZM263.344 16.7607V15.5713C264.014 16.0042 264.695 16.2207 265.388 16.2207C266.08 16.2207 266.639 16.0247 267.062 15.6328C267.486 15.2409 267.698 14.7214 267.698 14.0742C267.698 13.4316 267.482 12.9303 267.049 12.5703C266.616 12.2103 265.996 12.0303 265.189 12.0303C264.916 12.0303 264.403 12.0576 263.651 12.1123V7.19727H268.396V8.20898H264.711V11.0801C265.012 11.0618 265.29 11.0527 265.545 11.0527C266.593 11.0527 267.404 11.3171 267.979 11.8457C268.553 12.3698 268.84 13.0898 268.84 14.0059C268.84 14.9538 268.53 15.7171 267.91 16.2959C267.295 16.8747 266.45 17.1641 265.374 17.1641C264.467 17.1641 263.79 17.0296 263.344 16.7607ZM284.686 17H283.564V12.9805C283.564 12.2057 283.444 11.6452 283.202 11.2988C282.965 10.9525 282.564 10.7793 281.999 10.7793C281.521 10.7793 281.113 10.998 280.775 11.4355C280.443 11.873 280.276 12.3971 280.276 13.0078V17H279.155V12.8438C279.155 11.4674 278.624 10.7793 277.562 10.7793C277.07 10.7793 276.665 10.9867 276.346 11.4014C276.027 11.8115 275.867 12.347 275.867 13.0078V17H274.746V10H275.867V11.1074H275.895C276.391 10.2598 277.116 9.83594 278.068 9.83594C278.547 9.83594 278.964 9.97038 279.319 10.2393C279.675 10.5036 279.919 10.8522 280.051 11.2852C280.57 10.319 281.345 9.83594 282.375 9.83594C283.915 9.83594 284.686 10.7861 284.686 12.6865V17ZM287.379 8.22266C287.178 8.22266 287.007 8.1543 286.866 8.01758C286.725 7.88086 286.654 7.70768 286.654 7.49805C286.654 7.28841 286.725 7.11523 286.866 6.97852C287.007 6.83724 287.178 6.7666 287.379 6.7666C287.584 6.7666 287.757 6.83724 287.898 6.97852C288.044 7.11523 288.117 7.28841 288.117 7.49805C288.117 7.69857 288.044 7.86947 287.898 8.01074C287.757 8.15202 287.584 8.22266 287.379 8.22266ZM287.926 17H286.805V10H287.926V17ZM296.006 17H294.885V13.0078C294.885 11.5221 294.342 10.7793 293.258 10.7793C292.697 10.7793 292.232 10.9912 291.863 11.415C291.499 11.8343 291.316 12.3652 291.316 13.0078V17H290.195V10H291.316V11.1621H291.344C291.872 10.278 292.638 9.83594 293.641 9.83594C294.406 9.83594 294.992 10.0843 295.397 10.5811C295.803 11.0732 296.006 11.7865 296.006 12.7207V17Z"
                      fill="white" />
                    <path
                      d="M3.67773 17.1641C2.70703 17.1641 1.94824 16.7471 1.40137 15.9131C0.859049 15.0791 0.587891 13.8737 0.587891 12.2969C0.587891 10.5651 0.870443 9.25488 1.43555 8.36621C2.00521 7.47754 2.82552 7.0332 3.89648 7.0332C5.94727 7.0332 6.97266 8.70801 6.97266 12.0576C6.97266 13.7165 6.68327 14.9834 6.10449 15.8584C5.52572 16.7288 4.7168 17.1641 3.67773 17.1641ZM3.83496 7.9834C2.43587 7.9834 1.73633 9.40299 1.73633 12.2422C1.73633 14.8945 2.4222 16.2207 3.79395 16.2207C5.14746 16.2207 5.82422 14.8717 5.82422 12.1738C5.82422 9.38021 5.16113 7.9834 3.83496 7.9834Z"
                      fill="white" />
                  </svg>