<svg width="36" height="21" viewBox="0 0 36 21" fill="none" xmlns="http://www.w3.org/2000/svg">
                    <path
                      d="M2.86003 20.6434C2.25473 21.0679 1.62673 21.1134 0.97604 20.7798C0.325347 20.4463 0 19.9156 0 19.1878V1.81216C0 1.08439 0.325347 0.553717 0.97604 0.220152C1.62673 -0.113412 2.25473 -0.0679255 2.86003 0.356611L15.3897 8.99896C15.9042 9.36285 16.1614 9.8632 16.1614 10.5C16.1614 11.1368 15.9042 11.6372 15.3897 12.001L2.86003 20.6434ZM22.744 20.6434C22.1387 21.0679 21.5107 21.1134 20.86 20.7798C20.2093 20.4463 19.884 19.9156 19.884 19.1878V1.81216C19.884 1.08439 20.2093 0.553717 20.86 0.220152C21.5107 -0.113412 22.1387 -0.0679255 22.744 0.356611L35.2282 8.99896C35.7427 9.36285 36 9.8632 36 10.5C36 11.1368 35.7427 11.6372 35.2282 12.001L22.744 20.6434ZM3.63178 15.7309L11.1677 10.5L3.63178 5.2691V15.7309ZM23.5158 15.7309L31.0971 10.5L23.5158 5.2691V15.7309Z"
                      fill="#6C7880" />
                  </svg>