  <svg width="26" height="25" viewBox="0 0 26 25" fill="none" xmlns="http://www.w3.org/2000/svg">
                    <path
                      d="M1.81185 25C1.29849 25 0.868177 24.8205 0.520907 24.4616C0.173636 24.1027 0 23.6579 0 23.1273V1.87266C0 1.34207 0.173636 0.897317 0.520907 0.53839C0.868177 0.179464 1.29849 0 1.81185 0C2.3252 0 2.75552 0.179464 3.10279 0.53839C3.45006 0.897317 3.62369 1.34207 3.62369 1.87266V23.1273C3.62369 23.6579 3.45006 24.1027 3.10279 24.4616C2.75552 24.8205 2.3252 25 1.81185 25ZM23.1463 22.9401L10.6899 14.0449C10.1765 13.6704 9.91986 13.1554 9.91986 12.5C9.91986 11.8446 10.1765 11.3296 10.6899 10.9551L23.1463 2.05993C23.7503 1.62297 24.3769 1.57616 25.0261 1.91948C25.6754 2.2628 26 2.80899 26 3.55805V21.4419C26 22.191 25.6754 22.7372 25.0261 23.0805C24.3769 23.4238 23.7503 23.377 23.1463 22.9401ZM22.3763 17.8839V7.11611L14.8118 12.5L22.3763 17.8839Z"
                      fill="#6C7880" />
                  </svg>