
                  <svg width="26" height="25" viewBox="0 0 26 25" fill="none" xmlns="http://www.w3.org/2000/svg">
                    <path
                      d="M24.1882 25C23.6748 25 23.2445 24.8205 22.8972 24.4616C22.5499 24.1027 22.3763 23.6579 22.3763 23.1273V1.87266C22.3763 1.34207 22.5499 0.897317 22.8972 0.53839C23.2445 0.179464 23.6748 0 24.1882 0C24.7015 0 25.1318 0.179464 25.4791 0.53839C25.8264 0.897317 26 1.34207 26 1.87266V23.1273C26 23.6579 25.8264 24.1027 25.4791 24.4616C25.1318 24.8205 24.7015 25 24.1882 25ZM2.85366 22.9401C2.24971 23.377 1.62311 23.4238 0.973868 23.0805C0.324623 22.7372 0 22.191 0 21.4419V3.55805C0 2.80899 0.324623 2.2628 0.973868 1.91948C1.62311 1.57615 2.24971 1.62297 2.85366 2.05993L15.3101 10.9551C15.8235 11.3296 16.0801 11.8446 16.0801 12.5C16.0801 13.1554 15.8235 13.6704 15.3101 14.0449L2.85366 22.9401ZM3.62369 17.8839L11.1882 12.5L3.62369 7.11611V17.8839Z"
                      fill="#6C7880" />
                  </svg>