 <svg class="hover" width="153" height="300" viewBox="0 0 153 300" fill="none" xmlns="http://www.w3.org/2000/svg">
      <rect x="133.5" y="0.5" width="19" height="299" rx="9.5" stroke="#0D91F0" />
      <rect x="137" y="68" width="12" height="165" rx="6" fill="#0D91F0" />
      <rect y="137" width="123" height="26" rx="5" fill="black" />
      <path
        d="M11.8691 151.73V155H11.0898V146.598H13.2578C13.6992 146.598 14.0898 146.652 14.4297 146.762C14.7695 146.871 15.0566 147.029 15.291 147.236C15.5254 147.443 15.7031 147.697 15.8242 147.998C15.9453 148.299 16.0059 148.643 16.0059 149.029C16.0059 149.42 15.9375 149.781 15.8008 150.113C15.6641 150.441 15.4668 150.727 15.209 150.969C14.9551 151.207 14.6445 151.395 14.2773 151.531C13.9102 151.664 13.4941 151.73 13.0293 151.73H11.8691ZM11.8691 147.312V151.016H12.9824C13.7051 151.016 14.2539 150.848 14.6289 150.512C15.0039 150.176 15.1914 149.701 15.1914 149.088C15.1914 147.904 14.5 147.312 13.1172 147.312H11.8691ZM20.5645 149.768C20.3887 149.639 20.1621 149.574 19.8848 149.574C19.6855 149.574 19.5098 149.613 19.3574 149.691C19.2051 149.766 19.0703 149.867 18.9531 149.996C18.8398 150.125 18.7422 150.275 18.6602 150.447C18.582 150.615 18.5176 150.791 18.4668 150.975C18.4199 151.158 18.3848 151.344 18.3613 151.531C18.3418 151.719 18.332 151.896 18.332 152.064V155H17.5879V149H18.332V150.283H18.3555C18.4258 150.064 18.5137 149.869 18.6191 149.697C18.7285 149.521 18.8535 149.375 18.9941 149.258C19.1348 149.137 19.2871 149.045 19.4512 148.982C19.6191 148.92 19.7949 148.889 19.9785 148.889C20.0996 148.889 20.207 148.896 20.3008 148.912C20.3984 148.928 20.4863 148.951 20.5645 148.982V149.768ZM21.8477 152.135C21.8516 152.502 21.9004 152.832 21.9941 153.125C22.0879 153.418 22.2227 153.666 22.3984 153.869C22.5742 154.072 22.7871 154.229 23.0371 154.338C23.291 154.443 23.5762 154.496 23.8926 154.496C24.5684 154.496 25.207 154.26 25.8086 153.787V154.525C25.2344 154.936 24.5391 155.141 23.7227 155.141C23.3203 155.141 22.9551 155.07 22.627 154.93C22.2988 154.789 22.0195 154.586 21.7891 154.32C21.5586 154.051 21.3809 153.721 21.2559 153.33C21.1309 152.939 21.0684 152.494 21.0684 151.994C21.0684 151.545 21.1367 151.129 21.2734 150.746C21.4102 150.363 21.5996 150.033 21.8418 149.756C22.084 149.475 22.3711 149.256 22.7031 149.1C23.0352 148.939 23.3984 148.859 23.793 148.859C24.1797 148.859 24.5215 148.928 24.8184 149.064C25.1152 149.197 25.3633 149.389 25.5625 149.639C25.7656 149.889 25.9199 150.193 26.0254 150.553C26.1309 150.912 26.1836 151.314 26.1836 151.76V152.135H21.8477ZM25.4102 151.479C25.3984 150.854 25.25 150.369 24.9648 150.025C24.6797 149.682 24.2832 149.51 23.7754 149.51C23.5215 149.51 23.2852 149.555 23.0664 149.645C22.8516 149.734 22.6621 149.865 22.498 150.037C22.334 150.205 22.1973 150.412 22.0879 150.658C21.9824 150.9 21.9082 151.174 21.8652 151.479H25.4102ZM31.8613 155V153.945H31.8379C31.6387 154.324 31.3535 154.619 30.9824 154.83C30.6152 155.037 30.1973 155.141 29.7285 155.141C29.3535 155.141 29.0117 155.072 28.7031 154.936C28.3984 154.795 28.1367 154.594 27.918 154.332C27.6992 154.07 27.5293 153.754 27.4082 153.383C27.291 153.012 27.2324 152.592 27.2324 152.123C27.2324 151.639 27.2969 151.197 27.4258 150.799C27.5586 150.396 27.7441 150.053 27.9824 149.768C28.2246 149.479 28.5137 149.256 28.8496 149.1C29.1895 148.939 29.5664 148.859 29.9805 148.859C30.8438 148.859 31.4629 149.205 31.8379 149.896H31.8613V146.117H32.6113V155H31.8613ZM31.8613 151.379C31.8613 151.117 31.8164 150.873 31.7266 150.646C31.6367 150.42 31.5117 150.223 31.3516 150.055C31.1914 149.887 30.998 149.754 30.7715 149.656C30.5488 149.559 30.3027 149.51 30.0332 149.51C29.7363 149.51 29.4629 149.568 29.2129 149.686C28.9629 149.803 28.748 149.973 28.5684 150.195C28.3926 150.414 28.2539 150.682 28.1523 150.998C28.0547 151.314 28.0059 151.674 28.0059 152.076C28.0059 152.455 28.0508 152.795 28.1406 153.096C28.2305 153.396 28.3574 153.65 28.5215 153.857C28.6895 154.064 28.8887 154.223 29.1191 154.332C29.3496 154.441 29.6055 154.496 29.8867 154.496C30.1914 154.496 30.4648 154.441 30.707 154.332C30.9531 154.223 31.1602 154.072 31.3281 153.881C31.5 153.689 31.6309 153.465 31.7207 153.207C31.8145 152.949 31.8613 152.674 31.8613 152.381V151.379ZM34.9141 147.482C34.7695 147.482 34.6445 147.432 34.5391 147.33C34.4336 147.229 34.3809 147.1 34.3809 146.943C34.3809 146.791 34.4336 146.666 34.5391 146.568C34.6445 146.467 34.7695 146.416 34.9141 146.416C34.9883 146.416 35.0586 146.43 35.125 146.457C35.1914 146.48 35.248 146.516 35.2949 146.562C35.3457 146.609 35.3848 146.666 35.4121 146.732C35.4434 146.795 35.459 146.865 35.459 146.943C35.459 147.018 35.4453 147.088 35.418 147.154C35.3906 147.221 35.3516 147.279 35.3008 147.33C35.25 147.377 35.1914 147.414 35.125 147.441C35.0625 147.469 34.9922 147.482 34.9141 147.482ZM34.5449 155V149H35.2949V155H34.5449ZM41.2188 154.73C40.7734 155 40.2344 155.139 39.6016 155.146C39.1719 155.15 38.7852 155.076 38.4414 154.924C38.0977 154.771 37.8047 154.561 37.5625 154.291C37.3203 154.018 37.1348 153.697 37.0059 153.33C36.877 152.959 36.8125 152.557 36.8125 152.123C36.8125 151.674 36.8809 151.252 37.0176 150.857C37.1543 150.459 37.3535 150.113 37.6152 149.82C37.877 149.523 38.1973 149.289 38.5762 149.117C38.9551 148.945 39.3887 148.859 39.877 148.859C40.373 148.859 40.8262 148.955 41.2363 149.146V149.943C40.7988 149.654 40.3262 149.51 39.8184 149.51C39.4629 149.51 39.1465 149.578 38.8691 149.715C38.5918 149.848 38.3574 150.031 38.166 150.266C37.9785 150.496 37.834 150.768 37.7324 151.08C37.6348 151.389 37.5859 151.717 37.5859 152.064C37.5859 152.385 37.627 152.691 37.709 152.984C37.7949 153.277 37.9238 153.537 38.0957 153.764C38.2715 153.986 38.4922 154.164 38.7578 154.297C39.0234 154.43 39.3359 154.496 39.6953 154.496C40.2578 154.496 40.7656 154.328 41.2188 153.992V154.73ZM45.2441 154.93C44.9863 155.059 44.7051 155.123 44.4004 155.123C43.4316 155.123 42.9473 154.564 42.9473 153.447V149.656H41.8926V149H42.9473V147.488L43.6973 147.242V149H45.2441V149.656H43.6973V153.33C43.6973 153.736 43.7637 154.029 43.8965 154.209C44.0293 154.389 44.2539 154.479 44.5703 154.479C44.8047 154.479 45.0293 154.408 45.2441 154.268V154.93ZM46.8555 147.482C46.7109 147.482 46.5859 147.432 46.4805 147.33C46.375 147.229 46.3223 147.1 46.3223 146.943C46.3223 146.791 46.375 146.666 46.4805 146.568C46.5859 146.467 46.7109 146.416 46.8555 146.416C46.9297 146.416 47 146.43 47.0664 146.457C47.1328 146.48 47.1895 146.516 47.2363 146.562C47.2871 146.609 47.3262 146.666 47.3535 146.732C47.3848 146.795 47.4004 146.865 47.4004 146.943C47.4004 147.018 47.3867 147.088 47.3594 147.154C47.332 147.221 47.293 147.279 47.2422 147.33C47.1914 147.377 47.1328 147.414 47.0664 147.441C47.0039 147.469 46.9336 147.482 46.8555 147.482ZM46.4863 155V149H47.2363V155H46.4863ZM51.3086 155H50.5938L48.2969 149H49.123L50.7812 153.57C50.8828 153.848 50.9473 154.092 50.9746 154.303H50.998C51.0449 154.021 51.1055 153.785 51.1797 153.594L52.8965 149H53.6992L51.3086 155ZM55.0469 152.135C55.0508 152.502 55.0996 152.832 55.1934 153.125C55.2871 153.418 55.4219 153.666 55.5977 153.869C55.7734 154.072 55.9863 154.229 56.2363 154.338C56.4902 154.443 56.7754 154.496 57.0918 154.496C57.7676 154.496 58.4062 154.26 59.0078 153.787V154.525C58.4336 154.936 57.7383 155.141 56.9219 155.141C56.5195 155.141 56.1543 155.07 55.8262 154.93C55.498 154.789 55.2188 154.586 54.9883 154.32C54.7578 154.051 54.5801 153.721 54.4551 153.33C54.3301 152.939 54.2676 152.494 54.2676 151.994C54.2676 151.545 54.3359 151.129 54.4727 150.746C54.6094 150.363 54.7988 150.033 55.041 149.756C55.2832 149.475 55.5703 149.256 55.9023 149.1C56.2344 148.939 56.5977 148.859 56.9922 148.859C57.3789 148.859 57.7207 148.928 58.0176 149.064C58.3145 149.197 58.5625 149.389 58.7617 149.639C58.9648 149.889 59.1191 150.193 59.2246 150.553C59.3301 150.912 59.3828 151.314 59.3828 151.76V152.135H55.0469ZM58.6094 151.479C58.5977 150.854 58.4492 150.369 58.1641 150.025C57.8789 149.682 57.4824 149.51 56.9746 149.51C56.7207 149.51 56.4844 149.555 56.2656 149.645C56.0508 149.734 55.8613 149.865 55.6973 150.037C55.5332 150.205 55.3965 150.412 55.2871 150.658C55.1816 150.9 55.1074 151.174 55.0645 151.479H58.6094ZM64.2695 155V146.598H66.5664C66.9141 146.598 67.2266 146.645 67.5039 146.738C67.7852 146.832 68.0234 146.965 68.2188 147.137C68.418 147.305 68.5703 147.508 68.6758 147.746C68.7812 147.984 68.834 148.246 68.834 148.531C68.834 148.773 68.8008 149 68.7344 149.211C68.668 149.422 68.5723 149.615 68.4473 149.791C68.3223 149.963 68.168 150.113 67.9844 150.242C67.8047 150.367 67.5996 150.467 67.3691 150.541V150.564C67.6504 150.592 67.9062 150.66 68.1367 150.77C68.3672 150.879 68.5645 151.021 68.7285 151.197C68.8926 151.373 69.0195 151.58 69.1094 151.818C69.1992 152.053 69.2441 152.311 69.2441 152.592C69.2441 152.947 69.1797 153.273 69.0508 153.57C68.9219 153.863 68.7402 154.117 68.5059 154.332C68.2754 154.543 68 154.707 67.6797 154.824C67.3594 154.941 67.0059 155 66.6191 155H64.2695ZM65.0488 147.312V150.295H66.1387C66.4238 150.295 66.6816 150.258 66.9121 150.184C67.1426 150.109 67.3398 150.002 67.5039 149.861C67.668 149.721 67.793 149.551 67.8789 149.352C67.9688 149.152 68.0137 148.928 68.0137 148.678C68.0137 147.768 67.4473 147.312 66.3145 147.312H65.0488ZM65.0488 150.998V154.291H66.4961C67.1172 154.291 67.5938 154.146 67.9258 153.857C68.2617 153.564 68.4297 153.15 68.4297 152.615C68.4297 151.537 67.6973 150.998 66.2324 150.998H65.0488ZM73.3047 155.141C72.8594 155.141 72.459 155.066 72.1035 154.918C71.752 154.77 71.4512 154.561 71.2012 154.291C70.9512 154.018 70.7598 153.691 70.627 153.312C70.4941 152.934 70.4277 152.514 70.4277 152.053C70.4277 151.553 70.498 151.105 70.6387 150.711C70.7793 150.316 70.9785 149.982 71.2363 149.709C71.498 149.432 71.8125 149.221 72.1797 149.076C72.5469 148.932 72.957 148.859 73.4102 148.859C73.8438 148.859 74.2344 148.932 74.582 149.076C74.9297 149.217 75.2246 149.422 75.4668 149.691C75.709 149.961 75.8945 150.289 76.0234 150.676C76.1523 151.062 76.2168 151.502 76.2168 151.994C76.2168 152.463 76.1484 152.891 76.0117 153.277C75.8789 153.66 75.6875 153.99 75.4375 154.268C75.1875 154.545 74.8828 154.76 74.5234 154.912C74.1641 155.064 73.7578 155.141 73.3047 155.141ZM73.3633 149.51C73.0352 149.51 72.7383 149.566 72.4727 149.68C72.207 149.793 71.9785 149.959 71.7871 150.178C71.5996 150.393 71.4551 150.658 71.3535 150.975C71.252 151.287 71.2012 151.643 71.2012 152.041C71.2012 152.416 71.252 152.754 71.3535 153.055C71.4551 153.355 71.5977 153.613 71.7812 153.828C71.9688 154.043 72.1953 154.209 72.4609 154.326C72.7266 154.439 73.0234 154.496 73.3516 154.496C73.6875 154.496 73.9844 154.441 74.2422 154.332C74.5 154.219 74.7188 154.057 74.8984 153.846C75.0781 153.631 75.2129 153.369 75.3027 153.061C75.3965 152.752 75.4434 152.4 75.4434 152.006C75.4434 151.197 75.2637 150.58 74.9043 150.154C74.5449 149.725 74.0312 149.51 73.3633 149.51ZM81.7773 155V151.543C81.7773 150.188 81.2852 149.51 80.3008 149.51C80.0391 149.51 79.7969 149.562 79.5742 149.668C79.3516 149.77 79.1582 149.912 78.9941 150.096C78.834 150.279 78.707 150.498 78.6133 150.752C78.5234 151.002 78.4785 151.273 78.4785 151.566V155H77.7285V149H78.4785V150.043H78.502C78.9473 149.254 79.6172 148.859 80.5117 148.859C81.168 148.859 81.668 149.072 82.0117 149.498C82.3555 149.924 82.5273 150.539 82.5273 151.344V155H81.7773ZM88.5449 155V153.945H88.5215C88.3223 154.324 88.0371 154.619 87.666 154.83C87.2988 155.037 86.8809 155.141 86.4121 155.141C86.0371 155.141 85.6953 155.072 85.3867 154.936C85.082 154.795 84.8203 154.594 84.6016 154.332C84.3828 154.07 84.2129 153.754 84.0918 153.383C83.9746 153.012 83.916 152.592 83.916 152.123C83.916 151.639 83.9805 151.197 84.1094 150.799C84.2422 150.396 84.4277 150.053 84.666 149.768C84.9082 149.479 85.1973 149.256 85.5332 149.1C85.873 148.939 86.25 148.859 86.6641 148.859C87.5273 148.859 88.1465 149.205 88.5215 149.896H88.5449V146.117H89.2949V155H88.5449ZM88.5449 151.379C88.5449 151.117 88.5 150.873 88.4102 150.646C88.3203 150.42 88.1953 150.223 88.0352 150.055C87.875 149.887 87.6816 149.754 87.4551 149.656C87.2324 149.559 86.9863 149.51 86.7168 149.51C86.4199 149.51 86.1465 149.568 85.8965 149.686C85.6465 149.803 85.4316 149.973 85.252 150.195C85.0762 150.414 84.9375 150.682 84.8359 150.998C84.7383 151.314 84.6895 151.674 84.6895 152.076C84.6895 152.455 84.7344 152.795 84.8242 153.096C84.9141 153.396 85.041 153.65 85.2051 153.857C85.373 154.064 85.5723 154.223 85.8027 154.332C86.0332 154.441 86.2891 154.496 86.5703 154.496C86.875 154.496 87.1484 154.441 87.3906 154.332C87.6367 154.223 87.8438 154.072 88.0117 153.881C88.1836 153.689 88.3145 153.465 88.4043 153.207C88.498 152.949 88.5449 152.674 88.5449 152.381V151.379ZM94.6445 155V146.598H95.4238V154.291H98.7988V155H94.6445ZM102.555 155.141C102.109 155.141 101.709 155.066 101.354 154.918C101.002 154.77 100.701 154.561 100.451 154.291C100.201 154.018 100.01 153.691 99.877 153.312C99.7441 152.934 99.6777 152.514 99.6777 152.053C99.6777 151.553 99.748 151.105 99.8887 150.711C100.029 150.316 100.229 149.982 100.486 149.709C100.748 149.432 101.062 149.221 101.43 149.076C101.797 148.932 102.207 148.859 102.66 148.859C103.094 148.859 103.484 148.932 103.832 149.076C104.18 149.217 104.475 149.422 104.717 149.691C104.959 149.961 105.145 150.289 105.273 150.676C105.402 151.062 105.467 151.502 105.467 151.994C105.467 152.463 105.398 152.891 105.262 153.277C105.129 153.66 104.938 153.99 104.688 154.268C104.438 154.545 104.133 154.76 103.773 154.912C103.414 155.064 103.008 155.141 102.555 155.141ZM102.613 149.51C102.285 149.51 101.988 149.566 101.723 149.68C101.457 149.793 101.229 149.959 101.037 150.178C100.85 150.393 100.705 150.658 100.604 150.975C100.502 151.287 100.451 151.643 100.451 152.041C100.451 152.416 100.502 152.754 100.604 153.055C100.705 153.355 100.848 153.613 101.031 153.828C101.219 154.043 101.445 154.209 101.711 154.326C101.977 154.439 102.273 154.496 102.602 154.496C102.938 154.496 103.234 154.441 103.492 154.332C103.75 154.219 103.969 154.057 104.148 153.846C104.328 153.631 104.463 153.369 104.553 153.061C104.646 152.752 104.693 152.4 104.693 152.006C104.693 151.197 104.514 150.58 104.154 150.154C103.795 149.725 103.281 149.51 102.613 149.51ZM111.936 154.537C111.936 155.65 111.682 156.475 111.174 157.01C110.67 157.549 109.891 157.818 108.836 157.818C108.18 157.818 107.559 157.672 106.973 157.379V156.617C107.625 156.98 108.246 157.162 108.836 157.162C110.402 157.162 111.186 156.334 111.186 154.678V153.957H111.162C110.701 154.746 109.998 155.141 109.053 155.141C108.682 155.141 108.342 155.072 108.033 154.936C107.729 154.799 107.467 154.602 107.248 154.344C107.029 154.086 106.859 153.773 106.738 153.406C106.617 153.035 106.557 152.617 106.557 152.152C106.557 151.66 106.621 151.213 106.75 150.811C106.879 150.404 107.062 150.057 107.301 149.768C107.539 149.479 107.826 149.256 108.162 149.1C108.502 148.939 108.883 148.859 109.305 148.859C110.152 148.859 110.771 149.203 111.162 149.891H111.186V149H111.936V154.537ZM111.186 151.355C111.186 151.105 111.141 150.869 111.051 150.646C110.961 150.424 110.836 150.229 110.676 150.061C110.516 149.893 110.324 149.76 110.102 149.662C109.883 149.561 109.641 149.51 109.375 149.51C109.062 149.51 108.779 149.57 108.525 149.691C108.275 149.812 108.061 149.984 107.881 150.207C107.705 150.43 107.568 150.701 107.471 151.021C107.377 151.338 107.33 151.695 107.33 152.094C107.33 152.461 107.375 152.793 107.465 153.09C107.555 153.387 107.682 153.639 107.846 153.846C108.01 154.053 108.207 154.213 108.438 154.326C108.672 154.439 108.932 154.496 109.217 154.496C109.514 154.496 109.783 154.443 110.025 154.338C110.268 154.229 110.475 154.08 110.646 153.893C110.818 153.701 110.951 153.479 111.045 153.225C111.139 152.967 111.186 152.689 111.186 152.393V151.355Z"
        fill="white" />
    </svg>