  <svg class="hover" width="155" height="300" viewBox="0 0 155 300" fill="none" xmlns="http://www.w3.org/2000/svg">
      <rect x="0.5" y="0.5" width="19" height="299" rx="9.5" stroke="#0D91F0" />
      <rect x="4" y="68" width="12" height="165" rx="6" fill="#0D91F0" />
      <rect x="30" y="137" width="125" height="26" rx="5" fill="black" />
      <path
        d="M41.0898 155V146.598H43.3867C43.7344 146.598 44.0469 146.645 44.3242 146.738C44.6055 146.832 44.8438 146.965 45.0391 147.137C45.2383 147.305 45.3906 147.508 45.4961 147.746C45.6016 147.984 45.6543 148.246 45.6543 148.531C45.6543 148.773 45.6211 149 45.5547 149.211C45.4883 149.422 45.3926 149.615 45.2676 149.791C45.1426 149.963 44.9883 150.113 44.8047 150.242C44.625 150.367 44.4199 150.467 44.1895 150.541V150.564C44.4707 150.592 44.7266 150.66 44.957 150.77C45.1875 150.879 45.3848 151.021 45.5488 151.197C45.7129 151.373 45.8398 151.58 45.9297 151.818C46.0195 152.053 46.0645 152.311 46.0645 152.592C46.0645 152.947 46 153.273 45.8711 153.57C45.7422 153.863 45.5605 154.117 45.3262 154.332C45.0957 154.543 44.8203 154.707 44.5 154.824C44.1797 154.941 43.8262 155 43.4395 155H41.0898ZM41.8691 147.312V150.295H42.959C43.2441 150.295 43.502 150.258 43.7324 150.184C43.9629 150.109 44.1602 150.002 44.3242 149.861C44.4883 149.721 44.6133 149.551 44.6992 149.352C44.7891 149.152 44.834 148.928 44.834 148.678C44.834 147.768 44.2676 147.312 43.1348 147.312H41.8691ZM41.8691 150.998V154.291H43.3164C43.9375 154.291 44.4141 154.146 44.7461 153.857C45.082 153.564 45.25 153.15 45.25 152.615C45.25 151.537 44.5176 150.998 43.0527 150.998H41.8691ZM51.127 155V153.934H51.1035C50.9082 154.316 50.6406 154.613 50.3008 154.824C49.9648 155.035 49.584 155.141 49.1582 155.141C48.8691 155.141 48.6074 155.1 48.373 155.018C48.1426 154.936 47.9453 154.82 47.7812 154.672C47.6211 154.52 47.4961 154.338 47.4062 154.127C47.3203 153.916 47.2773 153.684 47.2773 153.43C47.2773 152.887 47.4453 152.455 47.7812 152.135C48.1172 151.811 48.625 151.6 49.3047 151.502L51.127 151.238C51.127 150.086 50.6797 149.51 49.7852 149.51C49.0859 149.51 48.4375 149.766 47.8398 150.277V149.457C47.9648 149.367 48.1055 149.287 48.2617 149.217C48.4219 149.143 48.5898 149.08 48.7656 149.029C48.9414 148.975 49.1211 148.934 49.3047 148.906C49.4922 148.875 49.6738 148.859 49.8496 148.859C50.5176 148.859 51.0215 149.047 51.3613 149.422C51.7051 149.797 51.877 150.355 51.877 151.098V155H51.127ZM49.5801 152.088C49.3105 152.127 49.0801 152.176 48.8887 152.234C48.6973 152.293 48.5391 152.373 48.4141 152.475C48.2891 152.572 48.1973 152.695 48.1387 152.844C48.0801 152.988 48.0508 153.168 48.0508 153.383C48.0508 153.543 48.0781 153.691 48.1328 153.828C48.1914 153.965 48.2734 154.084 48.3789 154.186C48.4883 154.283 48.6191 154.359 48.7715 154.414C48.9277 154.469 49.1035 154.496 49.2988 154.496C49.5645 154.496 49.8086 154.445 50.0312 154.344C50.2539 154.242 50.4453 154.102 50.6055 153.922C50.7695 153.742 50.8965 153.527 50.9863 153.277C51.0801 153.027 51.127 152.756 51.127 152.463V151.871L49.5801 152.088ZM57.6719 154.73C57.2266 155 56.6875 155.139 56.0547 155.146C55.625 155.15 55.2383 155.076 54.8945 154.924C54.5508 154.771 54.2578 154.561 54.0156 154.291C53.7734 154.018 53.5879 153.697 53.459 153.33C53.3301 152.959 53.2656 152.557 53.2656 152.123C53.2656 151.674 53.334 151.252 53.4707 150.857C53.6074 150.459 53.8066 150.113 54.0684 149.82C54.3301 149.523 54.6504 149.289 55.0293 149.117C55.4082 148.945 55.8418 148.859 56.3301 148.859C56.8262 148.859 57.2793 148.955 57.6895 149.146V149.943C57.252 149.654 56.7793 149.51 56.2715 149.51C55.916 149.51 55.5996 149.578 55.3223 149.715C55.0449 149.848 54.8105 150.031 54.6191 150.266C54.4316 150.496 54.2871 150.768 54.1855 151.08C54.0879 151.389 54.0391 151.717 54.0391 152.064C54.0391 152.385 54.0801 152.691 54.1621 152.984C54.248 153.277 54.377 153.537 54.5488 153.764C54.7246 153.986 54.9453 154.164 55.2109 154.297C55.4766 154.43 55.7891 154.496 56.1484 154.496C56.7109 154.496 57.2188 154.328 57.6719 153.992V154.73ZM62.6523 155L59.8926 152.076H59.8691V155H59.1191V146.117H59.8691V151.795H59.8926L62.5117 149H63.4902L60.6777 151.9L63.7129 155H62.6523ZM70.6387 154.93C70.3809 155.059 70.0996 155.123 69.7949 155.123C68.8262 155.123 68.3418 154.564 68.3418 153.447V149.656H67.2871V149H68.3418V147.488L69.0918 147.242V149H70.6387V149.656H69.0918V153.33C69.0918 153.736 69.1582 154.029 69.291 154.209C69.4238 154.389 69.6484 154.479 69.9648 154.479C70.1992 154.479 70.4238 154.408 70.6387 154.268V154.93ZM74.2422 155.141C73.7969 155.141 73.3965 155.066 73.041 154.918C72.6895 154.77 72.3887 154.561 72.1387 154.291C71.8887 154.018 71.6973 153.691 71.5645 153.312C71.4316 152.934 71.3652 152.514 71.3652 152.053C71.3652 151.553 71.4355 151.105 71.5762 150.711C71.7168 150.316 71.916 149.982 72.1738 149.709C72.4355 149.432 72.75 149.221 73.1172 149.076C73.4844 148.932 73.8945 148.859 74.3477 148.859C74.7812 148.859 75.1719 148.932 75.5195 149.076C75.8672 149.217 76.1621 149.422 76.4043 149.691C76.6465 149.961 76.832 150.289 76.9609 150.676C77.0898 151.062 77.1543 151.502 77.1543 151.994C77.1543 152.463 77.0859 152.891 76.9492 153.277C76.8164 153.66 76.625 153.99 76.375 154.268C76.125 154.545 75.8203 154.76 75.4609 154.912C75.1016 155.064 74.6953 155.141 74.2422 155.141ZM74.3008 149.51C73.9727 149.51 73.6758 149.566 73.4102 149.68C73.1445 149.793 72.916 149.959 72.7246 150.178C72.5371 150.393 72.3926 150.658 72.291 150.975C72.1895 151.287 72.1387 151.643 72.1387 152.041C72.1387 152.416 72.1895 152.754 72.291 153.055C72.3926 153.355 72.5352 153.613 72.7188 153.828C72.9062 154.043 73.1328 154.209 73.3984 154.326C73.6641 154.439 73.9609 154.496 74.2891 154.496C74.625 154.496 74.9219 154.441 75.1797 154.332C75.4375 154.219 75.6562 154.057 75.8359 153.846C76.0156 153.631 76.1504 153.369 76.2402 153.061C76.334 152.752 76.3809 152.4 76.3809 152.006C76.3809 151.197 76.2012 150.58 75.8418 150.154C75.4824 149.725 74.9688 149.51 74.3008 149.51ZM87.7305 154.689C87.082 154.994 86.3418 155.146 85.5098 155.146C84.916 155.146 84.377 155.043 83.8926 154.836C83.4082 154.625 82.9941 154.334 82.6504 153.963C82.3105 153.592 82.0469 153.15 81.8594 152.639C81.6758 152.127 81.584 151.568 81.584 150.963C81.584 150.326 81.6816 149.734 81.877 149.188C82.0762 148.637 82.3594 148.16 82.7266 147.758C83.0938 147.352 83.5371 147.033 84.0566 146.803C84.5801 146.572 85.166 146.457 85.8145 146.457C86.5293 146.457 87.168 146.566 87.7305 146.785V147.617C87.1289 147.316 86.4863 147.166 85.8027 147.166C85.2598 147.166 84.7773 147.26 84.3555 147.447C83.9336 147.635 83.5781 147.896 83.2891 148.232C83 148.564 82.7793 148.959 82.627 149.416C82.4746 149.869 82.3984 150.365 82.3984 150.904C82.3984 151.389 82.4668 151.846 82.6035 152.275C82.7402 152.701 82.9414 153.074 83.207 153.395C83.4766 153.715 83.8105 153.969 84.209 154.156C84.6074 154.344 85.0703 154.438 85.5977 154.438C86.4062 154.438 87.1172 154.268 87.7305 153.928V154.689ZM92.8574 155V153.934H92.834C92.6387 154.316 92.3711 154.613 92.0312 154.824C91.6953 155.035 91.3145 155.141 90.8887 155.141C90.5996 155.141 90.3379 155.1 90.1035 155.018C89.873 154.936 89.6758 154.82 89.5117 154.672C89.3516 154.52 89.2266 154.338 89.1367 154.127C89.0508 153.916 89.0078 153.684 89.0078 153.43C89.0078 152.887 89.1758 152.455 89.5117 152.135C89.8477 151.811 90.3555 151.6 91.0352 151.502L92.8574 151.238C92.8574 150.086 92.4102 149.51 91.5156 149.51C90.8164 149.51 90.168 149.766 89.5703 150.277V149.457C89.6953 149.367 89.8359 149.287 89.9922 149.217C90.1523 149.143 90.3203 149.08 90.4961 149.029C90.6719 148.975 90.8516 148.934 91.0352 148.906C91.2227 148.875 91.4043 148.859 91.5801 148.859C92.248 148.859 92.752 149.047 93.0918 149.422C93.4355 149.797 93.6074 150.355 93.6074 151.098V155H92.8574ZM91.3105 152.088C91.041 152.127 90.8105 152.176 90.6191 152.234C90.4277 152.293 90.2695 152.373 90.1445 152.475C90.0195 152.572 89.9277 152.695 89.8691 152.844C89.8105 152.988 89.7812 153.168 89.7812 153.383C89.7812 153.543 89.8086 153.691 89.8633 153.828C89.9219 153.965 90.0039 154.084 90.1094 154.186C90.2188 154.283 90.3496 154.359 90.502 154.414C90.6582 154.469 90.834 154.496 91.0293 154.496C91.2949 154.496 91.5391 154.445 91.7617 154.344C91.9844 154.242 92.1758 154.102 92.3359 153.922C92.5 153.742 92.627 153.527 92.7168 153.277C92.8105 153.027 92.8574 152.756 92.8574 152.463V151.871L91.3105 152.088ZM95.0723 153.922C95.1855 154.012 95.3086 154.092 95.4414 154.162C95.5742 154.232 95.7109 154.293 95.8516 154.344C95.9922 154.395 96.1328 154.434 96.2734 154.461C96.418 154.484 96.5547 154.496 96.6836 154.496C97.5742 154.496 98.0195 154.162 98.0195 153.494C98.0195 153.342 97.9883 153.211 97.9258 153.102C97.8633 152.988 97.7734 152.887 97.6562 152.797C97.5391 152.703 97.3984 152.617 97.2344 152.539C97.0703 152.461 96.8848 152.379 96.6777 152.293C96.4004 152.18 96.1621 152.064 95.9629 151.947C95.7637 151.83 95.5996 151.703 95.4707 151.566C95.3418 151.426 95.2461 151.273 95.1836 151.109C95.1211 150.941 95.0898 150.752 95.0898 150.541C95.0898 150.275 95.1465 150.039 95.2598 149.832C95.377 149.625 95.5332 149.449 95.7285 149.305C95.9238 149.16 96.1484 149.051 96.4023 148.977C96.6602 148.898 96.9297 148.859 97.2109 148.859C97.7305 148.859 98.1836 148.957 98.5703 149.152V149.943C98.1211 149.654 97.6367 149.51 97.1172 149.51C96.9297 149.51 96.7578 149.533 96.6016 149.58C96.4492 149.627 96.3184 149.693 96.209 149.779C96.0996 149.865 96.0137 149.969 95.9512 150.09C95.8926 150.207 95.8633 150.338 95.8633 150.482C95.8633 150.631 95.8867 150.762 95.9336 150.875C95.9805 150.984 96.0527 151.084 96.1504 151.174C96.252 151.264 96.3809 151.35 96.5371 151.432C96.6973 151.514 96.8906 151.602 97.1172 151.695C97.4062 151.812 97.6562 151.93 97.8672 152.047C98.0781 152.16 98.252 152.285 98.3887 152.422C98.5254 152.555 98.627 152.705 98.6934 152.873C98.7598 153.037 98.793 153.229 98.793 153.447C98.793 153.717 98.7363 153.957 98.623 154.168C98.5137 154.379 98.3594 154.557 98.1602 154.701C97.9648 154.846 97.7344 154.955 97.4688 155.029C97.2031 155.104 96.9141 155.141 96.6016 155.141C95.9961 155.141 95.4863 155.014 95.0723 154.76V153.922ZM100.645 152.135C100.648 152.502 100.697 152.832 100.791 153.125C100.885 153.418 101.02 153.666 101.195 153.869C101.371 154.072 101.584 154.229 101.834 154.338C102.088 154.443 102.373 154.496 102.689 154.496C103.365 154.496 104.004 154.26 104.605 153.787V154.525C104.031 154.936 103.336 155.141 102.52 155.141C102.117 155.141 101.752 155.07 101.424 154.93C101.096 154.789 100.816 154.586 100.586 154.32C100.355 154.051 100.178 153.721 100.053 153.33C99.9277 152.939 99.8652 152.494 99.8652 151.994C99.8652 151.545 99.9336 151.129 100.07 150.746C100.207 150.363 100.396 150.033 100.639 149.756C100.881 149.475 101.168 149.256 101.5 149.1C101.832 148.939 102.195 148.859 102.59 148.859C102.977 148.859 103.318 148.928 103.615 149.064C103.912 149.197 104.16 149.389 104.359 149.639C104.562 149.889 104.717 150.193 104.822 150.553C104.928 150.912 104.98 151.314 104.98 151.76V152.135H100.645ZM104.207 151.479C104.195 150.854 104.047 150.369 103.762 150.025C103.477 149.682 103.08 149.51 102.572 149.51C102.318 149.51 102.082 149.555 101.863 149.645C101.648 149.734 101.459 149.865 101.295 150.037C101.131 150.205 100.994 150.412 100.885 150.658C100.779 150.9 100.705 151.174 100.662 151.479H104.207ZM114.443 155L113.178 152.592C113.053 152.354 112.932 152.154 112.814 151.994C112.697 151.834 112.576 151.707 112.451 151.613C112.326 151.516 112.191 151.447 112.047 151.408C111.906 151.365 111.748 151.344 111.572 151.344H110.646V155H109.867V146.598H112.287C112.604 146.598 112.908 146.645 113.201 146.738C113.498 146.832 113.762 146.971 113.992 147.154C114.223 147.338 114.406 147.568 114.543 147.846C114.684 148.123 114.754 148.445 114.754 148.812C114.754 149.109 114.709 149.383 114.619 149.633C114.529 149.883 114.4 150.105 114.232 150.301C114.068 150.492 113.867 150.656 113.629 150.793C113.395 150.926 113.129 151.025 112.832 151.092V151.115C112.945 151.162 113.049 151.223 113.143 151.297C113.236 151.371 113.326 151.461 113.412 151.566C113.502 151.672 113.59 151.793 113.676 151.93C113.762 152.066 113.852 152.223 113.945 152.398L115.357 155H114.443ZM110.646 147.312V150.635H112.041C112.322 150.635 112.58 150.594 112.814 150.512C113.049 150.43 113.248 150.312 113.412 150.16C113.58 150.008 113.709 149.824 113.799 149.609C113.893 149.395 113.939 149.152 113.939 148.883C113.939 148.395 113.781 148.012 113.465 147.734C113.152 147.453 112.699 147.312 112.105 147.312H110.646ZM116.688 152.135C116.691 152.502 116.74 152.832 116.834 153.125C116.928 153.418 117.062 153.666 117.238 153.869C117.414 154.072 117.627 154.229 117.877 154.338C118.131 154.443 118.416 154.496 118.732 154.496C119.408 154.496 120.047 154.26 120.648 153.787V154.525C120.074 154.936 119.379 155.141 118.562 155.141C118.16 155.141 117.795 155.07 117.467 154.93C117.139 154.789 116.859 154.586 116.629 154.32C116.398 154.051 116.221 153.721 116.096 153.33C115.971 152.939 115.908 152.494 115.908 151.994C115.908 151.545 115.977 151.129 116.113 150.746C116.25 150.363 116.439 150.033 116.682 149.756C116.924 149.475 117.211 149.256 117.543 149.1C117.875 148.939 118.238 148.859 118.633 148.859C119.02 148.859 119.361 148.928 119.658 149.064C119.955 149.197 120.203 149.389 120.402 149.639C120.605 149.889 120.76 150.193 120.865 150.553C120.971 150.912 121.023 151.314 121.023 151.76V152.135H116.688ZM120.25 151.479C120.238 150.854 120.09 150.369 119.805 150.025C119.52 149.682 119.123 149.51 118.615 149.51C118.361 149.51 118.125 149.555 117.906 149.645C117.691 149.734 117.502 149.865 117.338 150.037C117.174 150.205 117.037 150.412 116.928 150.658C116.822 150.9 116.748 151.174 116.705 151.479H120.25ZM122.154 153.922C122.268 154.012 122.391 154.092 122.523 154.162C122.656 154.232 122.793 154.293 122.934 154.344C123.074 154.395 123.215 154.434 123.355 154.461C123.5 154.484 123.637 154.496 123.766 154.496C124.656 154.496 125.102 154.162 125.102 153.494C125.102 153.342 125.07 153.211 125.008 153.102C124.945 152.988 124.855 152.887 124.738 152.797C124.621 152.703 124.48 152.617 124.316 152.539C124.152 152.461 123.967 152.379 123.76 152.293C123.482 152.18 123.244 152.064 123.045 151.947C122.846 151.83 122.682 151.703 122.553 151.566C122.424 151.426 122.328 151.273 122.266 151.109C122.203 150.941 122.172 150.752 122.172 150.541C122.172 150.275 122.229 150.039 122.342 149.832C122.459 149.625 122.615 149.449 122.811 149.305C123.006 149.16 123.23 149.051 123.484 148.977C123.742 148.898 124.012 148.859 124.293 148.859C124.812 148.859 125.266 148.957 125.652 149.152V149.943C125.203 149.654 124.719 149.51 124.199 149.51C124.012 149.51 123.84 149.533 123.684 149.58C123.531 149.627 123.4 149.693 123.291 149.779C123.182 149.865 123.096 149.969 123.033 150.09C122.975 150.207 122.945 150.338 122.945 150.482C122.945 150.631 122.969 150.762 123.016 150.875C123.062 150.984 123.135 151.084 123.232 151.174C123.334 151.264 123.463 151.35 123.619 151.432C123.779 151.514 123.973 151.602 124.199 151.695C124.488 151.812 124.738 151.93 124.949 152.047C125.16 152.16 125.334 152.285 125.471 152.422C125.607 152.555 125.709 152.705 125.775 152.873C125.842 153.037 125.875 153.229 125.875 153.447C125.875 153.717 125.818 153.957 125.705 154.168C125.596 154.379 125.441 154.557 125.242 154.701C125.047 154.846 124.816 154.955 124.551 155.029C124.285 155.104 123.996 155.141 123.684 155.141C123.078 155.141 122.568 155.014 122.154 154.76V153.922ZM131.295 155V153.98H131.271C130.865 154.754 130.234 155.141 129.379 155.141C127.953 155.141 127.24 154.27 127.24 152.527V149H127.99V152.387C127.99 153.105 128.117 153.637 128.371 153.98C128.629 154.324 129.021 154.496 129.549 154.496C129.807 154.496 130.041 154.447 130.252 154.35C130.467 154.248 130.65 154.107 130.803 153.928C130.959 153.744 131.08 153.525 131.166 153.271C131.252 153.018 131.295 152.736 131.295 152.428V149H132.045V155H131.295ZM133.979 155V146.117H134.729V155H133.979ZM139.24 154.93C138.982 155.059 138.701 155.123 138.396 155.123C137.428 155.123 136.943 154.564 136.943 153.447V149.656H135.889V149H136.943V147.488L137.693 147.242V149H139.24V149.656H137.693V153.33C137.693 153.736 137.76 154.029 137.893 154.209C138.025 154.389 138.25 154.479 138.566 154.479C138.801 154.479 139.025 154.408 139.24 154.268V154.93ZM140.143 153.922C140.256 154.012 140.379 154.092 140.512 154.162C140.645 154.232 140.781 154.293 140.922 154.344C141.062 154.395 141.203 154.434 141.344 154.461C141.488 154.484 141.625 154.496 141.754 154.496C142.645 154.496 143.09 154.162 143.09 153.494C143.09 153.342 143.059 153.211 142.996 153.102C142.934 152.988 142.844 152.887 142.727 152.797C142.609 152.703 142.469 152.617 142.305 152.539C142.141 152.461 141.955 152.379 141.748 152.293C141.471 152.18 141.232 152.064 141.033 151.947C140.834 151.83 140.67 151.703 140.541 151.566C140.412 151.426 140.316 151.273 140.254 151.109C140.191 150.941 140.16 150.752 140.16 150.541C140.16 150.275 140.217 150.039 140.33 149.832C140.447 149.625 140.604 149.449 140.799 149.305C140.994 149.16 141.219 149.051 141.473 148.977C141.73 148.898 142 148.859 142.281 148.859C142.801 148.859 143.254 148.957 143.641 149.152V149.943C143.191 149.654 142.707 149.51 142.188 149.51C142 149.51 141.828 149.533 141.672 149.58C141.52 149.627 141.389 149.693 141.279 149.779C141.17 149.865 141.084 149.969 141.021 150.09C140.963 150.207 140.934 150.338 140.934 150.482C140.934 150.631 140.957 150.762 141.004 150.875C141.051 150.984 141.123 151.084 141.221 151.174C141.322 151.264 141.451 151.35 141.607 151.432C141.768 151.514 141.961 151.602 142.188 151.695C142.477 151.812 142.727 151.93 142.938 152.047C143.148 152.16 143.322 152.285 143.459 152.422C143.596 152.555 143.697 152.705 143.764 152.873C143.83 153.037 143.863 153.229 143.863 153.447C143.863 153.717 143.807 153.957 143.693 154.168C143.584 154.379 143.43 154.557 143.23 154.701C143.035 154.846 142.805 154.955 142.539 155.029C142.273 155.104 141.984 155.141 141.672 155.141C141.066 155.141 140.557 155.014 140.143 154.76V153.922Z"
        fill="white" />
    </svg>