 <svg width="24" height="26" viewBox="0 0 24 26" fill="none" xmlns="http://www.w3.org/2000/svg">
                <path fill-rule="evenodd" clip-rule="evenodd"
                  d="M3 0C1.34315 0 0 1.34315 0 3V23C0 24.6569 1.34315 26 3 26H17.644C18.0098 25.7493 18.3255 25.4162 18.5908 25.0361C19.184 24.1861 19.4685 23.1753 19.4685 22.5492V22.0492H19.9685C20.8686 22.0492 22.0943 21.8163 23.0843 21.409C23.4409 21.2622 23.7516 21.099 24 20.9266V3C24 1.34315 22.6569 0 21 0H3ZM23.9991 22.0881C23.8269 22.1767 23.6476 22.2585 23.4648 22.3337C22.5179 22.7234 21.3892 22.9701 20.4346 23.0332C20.33 23.8237 19.9843 24.7867 19.4109 25.6084C19.3176 25.7419 19.2174 25.873 19.1102 26H20C22.1797 26 23.9522 24.2565 23.9991 22.0881ZM9.77816 4.7002C9.77816 4.42406 10.002 4.2002 10.2782 4.2002H19.9448C20.221 4.2002 20.4448 4.42406 20.4448 4.7002C20.4448 4.97635 20.221 5.2002 19.9448 5.2002H10.2782C10.002 5.2002 9.77816 4.97635 9.77816 4.7002ZM10.2782 11.6286C10.002 11.6286 9.77816 11.8525 9.77816 12.1286C9.77816 12.4047 10.002 12.6286 10.2782 12.6286H19.9448C20.221 12.6286 20.4448 12.4047 20.4448 12.1286C20.4448 11.8525 20.221 11.6286 19.9448 11.6286H10.2782ZM9.77816 20.3004C9.77816 20.0243 10.002 19.8004 10.2782 19.8004H19.9448C20.221 19.8004 20.4448 20.0243 20.4448 20.3004C20.4448 20.5765 20.221 20.8004 19.9448 20.8004H10.2782C10.002 20.8004 9.77816 20.5765 9.77816 20.3004ZM3.55106 10.4C2.99878 10.4 2.55106 10.8477 2.55106 11.4V13.1143C2.55106 13.6666 2.99878 14.1143 3.55106 14.1143H5.99551C6.54779 14.1143 6.99551 13.6666 6.99551 13.1143V12.3056L9.06673 10.8049L8.48 9.99509L8.26557 10.1505L8.61385 10.629L5.22713 13.0939L4.83199 13.3815L4.53546 12.993L3.40655 11.5141L4.20144 10.9073L5.03381 11.9978L6.75268 10.7467C6.56931 10.5344 6.2981 10.4 5.99551 10.4H3.55106ZM3.55106 2.51232C2.99878 2.51232 2.55106 2.96003 2.55106 3.51232V5.2266C2.55106 5.77889 2.99878 6.2266 3.55106 6.2266H5.99551C6.54779 6.2266 6.99551 5.77889 6.99551 5.2266V4.41791L9.06673 2.91721L8.48 2.10743L8.26557 2.26279L8.61385 2.74131L5.22713 5.20621L4.83199 5.4938L4.53546 5.10532L3.40655 3.62638L4.20144 3.01963L5.03381 4.11009L6.75268 2.85908C6.56931 2.64672 6.2981 2.51232 5.99551 2.51232H3.55106ZM3.55106 18.2877C2.99878 18.2877 2.55106 18.7354 2.55106 19.2877V21.0019C2.55106 21.5542 2.99878 22.0019 3.55106 22.0019H5.99551C6.54779 22.0019 6.99551 21.5542 6.99551 21.0019V20.1932L9.06673 18.6925L8.48 17.8828L8.26557 18.0381L8.61385 18.5166L5.22713 20.9815L4.83199 21.2691L4.53546 20.8807L3.40655 19.4017L4.20144 18.795L5.03381 19.8854L6.75268 18.6344C6.56931 18.4221 6.2981 18.2877 5.99551 18.2877H3.55106Z"
                  fill="white" />
              </svg>