  <svg width="28" height="25" viewBox="0 0 28 25" fill="none" xmlns="http://www.w3.org/2000/svg">
              <path
                d="M1.85874 25C1.36307 25 0.929368 24.8141 0.557621 24.4424C0.185874 24.0706 0 23.6369 0 23.1413V7.24907C0 6.77406 0.185874 6.34552 0.557621 5.96345C0.929368 5.58137 1.36307 5.39034 1.85874 5.39034H6.41264L8.6741 2.69517H17.3482V6.41264H21.0347V10.1301H24.7831V23.1413C24.7831 23.6369 24.5921 24.0706 24.21 24.4424C23.828 24.8141 23.3994 25 22.9244 25H1.85874ZM12.3916 20.4771C13.8786 20.4771 15.128 19.9711 16.14 18.9591C17.152 17.9471 17.658 16.6976 17.658 15.2107C17.658 13.703 17.152 12.4484 16.14 11.4467C15.128 10.4451 13.8786 9.94424 12.3916 9.94424C10.8839 9.94424 9.62929 10.4451 8.62763 11.4467C7.62598 12.4484 7.12516 13.703 7.12516 15.2107C7.12516 16.6976 7.62598 17.9471 8.62763 18.9591C9.62929 19.9711 10.8839 20.4771 12.3916 20.4771ZM12.3916 18.6183C11.4002 18.6183 10.5845 18.2931 9.94424 17.6425C9.30401 16.9919 8.98389 16.1813 8.98389 15.2107C8.98389 14.2193 9.30401 13.4036 9.94424 12.7633C10.5845 12.1231 11.4002 11.803 12.3916 11.803C13.3622 11.803 14.1729 12.1231 14.8234 12.7633C15.474 13.4036 15.7993 14.2193 15.7993 15.2107C15.7993 16.1813 15.474 16.9919 14.8234 17.6425C14.1729 18.2931 13.3622 18.6183 12.3916 18.6183ZM22.8934 7.21809V4.5539H20.2292V2.69517H22.8934V0H24.7522V2.69517H27.4473V4.5539H24.7522V7.21809H22.8934Z"
                fill="white" />
            </svg>