<svg width="24" height="25" viewBox="0 0 24 25" fill="none" xmlns="http://www.w3.org/2000/svg">
<path opacity="0.1" fill-rule="evenodd" clip-rule="evenodd" d="M12.9995 1.01367V4.34556C13.4083 4.70158 13.7704 5.11183 14.0749 5.56726C14.7521 6.58017 15.1136 7.77104 15.1136 8.98926C15.115 9.79822 14.9567 10.5995 14.6477 11.3472C14.3387 12.0949 13.8851 12.7743 13.3129 13.3465C12.7407 13.9187 12.0612 14.3725 11.3132 14.6817C10.5652 14.991 9.76351 15.1497 8.95405 15.1487H8.95043C7.73147 15.1487 6.53987 14.7875 5.52634 14.1106C4.71511 13.5689 4.04712 12.8445 3.57359 11.9998H0.533203C0.935734 13.1106 1.55855 14.1408 2.37636 15.0238C3.94556 16.7181 6.1106 17.739 8.41688 17.8719C10.7232 18.0049 12.9913 17.2396 14.745 15.7369L15.1148 16.1197V17.2067L21.9608 24.034L23.9995 21.9953L17.168 15.1487H16.0876L15.7045 14.7791C17.2104 13.0284 17.979 10.7626 17.8489 8.45752C17.7187 6.15247 16.7 3.98748 15.0067 2.4171C14.4001 1.85457 13.7238 1.38402 12.9995 1.01367Z" fill="#C9CFD4"/>
<rect opacity="0.1" x="0.75" y="0.75" width="11.5" height="10.5" stroke="#C9CFD4" stroke-width="1.5" stroke-dasharray="2 2"/>
</svg>
