<svg width="20" height="20" viewBox="0 0 20 20" fill="none" xmlns="http://www.w3.org/2000/svg">
<path d="M9.25489 7.64999L9.26223 2.95L7.16222 5.04999L6.06565 3.95L10.0157 0L13.9533 3.95L12.8533 5.04999L10.7599 2.95L10.7525 7.64999H9.25489ZM9.98444 20L5.92215 15.925L7.02215 14.825L9.24021 17.05L9.24759 12.325H10.7452L10.7379 17.05L12.9629 14.825L14.0594 15.925L9.98444 20ZM16.0344 13.95L14.9379 12.85L17.0379 10.75H12.3452L12.3476 9.24999H17.0402L14.9468 7.14999L16.0468 6.04999L19.9845 9.99999L16.0344 13.95ZM3.95331 13.95L0.0156371 9.99999L3.99065 6.02499L5.08721 7.12499L2.96221 9.24999H7.67984L7.6775 10.75H2.95987L5.05332 12.85L3.95331 13.95Z" fill="#C9CFD4"/>
</svg>
