<svg width="20" height="20" viewBox="0 0 20 20" fill="none" xmlns="http://www.w3.org/2000/svg">
<path d="M14.3071 12.5957H13.4068L13.0876 12.2877C14.3425 10.8288 14.9829 8.94059 14.8745 7.01972C14.766 5.09885 13.9171 3.29469 12.506 1.98604C11.0948 0.677388 9.23123 -0.0339565 7.30646 0.00137815C5.38169 0.0367128 3.54548 0.815969 2.18337 2.17553C0.821267 3.5351 0.039217 5.36922 0.00143523 7.29277C-0.0363466 9.21633 0.673074 11.0797 1.98074 12.4916C3.28841 13.9036 5.09261 14.7543 7.01451 14.8651C8.93641 14.9758 10.8265 14.3382 12.288 13.0859L12.5961 13.4049V14.3107L18.3011 20.0001L20 18.3012L14.3071 12.5957ZM7.45913 12.5957C6.44333 12.5957 5.45034 12.2947 4.60573 11.7307C3.76112 11.1667 3.10283 10.365 2.7141 9.42711C2.32537 8.4892 2.22366 7.45714 2.42183 6.46146C2.62 5.46578 3.10916 4.55119 3.82744 3.83335C4.54572 3.11551 5.46086 2.62666 6.45715 2.4286C7.45343 2.23055 8.48611 2.33219 9.42459 2.72068C10.3631 3.10917 11.1652 3.76708 11.7295 4.61117C12.2939 5.45527 12.5951 6.44765 12.5951 7.46284C12.5963 8.13698 12.4644 8.80472 12.2069 9.42781C11.9494 10.0509 11.5714 10.6171 11.0946 11.0939C10.6177 11.5707 10.0514 11.9488 9.42809 12.2065C8.80477 12.4643 8.1367 12.5965 7.46215 12.5957H7.45913ZM4.16667 6.66679H10.8333V8.33346H4.16667V6.66679Z" fill="#C9CFD4"/>
</svg>