<svg width="24" height="24" viewBox="0 0 24 24" fill="none" xmlns="http://www.w3.org/2000/svg">
<g opacity="0.1">
<path d="M17.1611 15.0993H16.0763L15.6927 14.7288C17.1956 12.9782 17.9616 10.7137 17.8299 8.4106C17.6982 6.10751 16.6791 3.94498 14.9865 2.37704C13.294 0.809102 11.0596 -0.0422829 8.75243 0.00161711C6.44532 0.0455171 4.24493 0.981303 2.61326 2.6125C0.981584 4.24369 0.0455306 6.4434 0.00161757 8.74984C-0.0422954 11.0563 0.80935 13.29 2.37775 14.9821C3.94615 16.6742 6.10932 17.693 8.4131 17.8246C10.7169 17.9563 12.9821 17.1905 14.7331 15.6881L15.1037 16.0716V17.156L21.9568 24L24 21.9574L17.1611 15.0993ZM8.93526 15.0993C7.71502 15.0993 6.52217 14.7375 5.50758 14.0598C4.49298 13.3821 3.7022 12.4188 3.23523 11.2918C2.76826 10.1648 2.64609 8.92459 2.88415 7.72815C3.12221 6.5317 3.7098 5.43271 4.57264 4.57012C5.43549 3.70754 6.53482 3.12009 7.73162 2.88211C8.92842 2.64412 10.1689 2.76627 11.2963 3.2331C12.4236 3.69993 13.3872 4.49048 14.0651 5.50478C14.7431 6.51908 15.1049 7.71156 15.1049 8.93144C15.106 9.74172 14.9472 10.5442 14.6375 11.2931C14.3278 12.0419 13.8734 12.7222 13.3003 13.2952C12.7272 13.8681 12.0466 14.3224 11.2976 14.632C10.5485 14.9416 9.74578 15.1004 8.93526 15.0993Z" fill="#C9CFD4"/>
<path d="M13 9.79973H9.7989V13H8.19972V9.79973H5V8.20029H8.19972V5H9.7989V8.20029H12.9986L13 9.79973Z" fill="#C9CFD4"/>
</g>
</svg>
