<svg width="20" height="21" viewBox="0 0 20 21" fill="none" xmlns="http://www.w3.org/2000/svg">
<path fill-rule="evenodd" clip-rule="evenodd" d="M0.445313 10.0001C0.780754 10.9258 1.29977 11.7842 1.98128 12.5201C3.28894 13.932 5.09314 14.7827 7.01504 14.8935C8.93694 15.0043 10.827 14.3666 12.2885 13.1143L12.5966 13.4333V14.3391L18.3016 20.0286L20.0005 18.3297L14.3076 12.6242H13.4073L13.0881 12.3162C14.343 10.8572 14.9835 8.96904 14.875 7.04817C14.7666 5.1273 13.9177 3.32314 12.5065 2.01449C12.001 1.54572 11.4375 1.15359 10.8339 0.844971V3.62155C11.1745 3.91822 11.4763 4.2601 11.7301 4.63962C12.2944 5.48372 12.5956 6.4761 12.5956 7.49128C12.5968 8.16542 12.4649 8.83317 12.2074 9.45626C11.9499 10.0793 11.5719 10.6455 11.0951 11.1224C10.6182 11.5992 10.0519 11.9773 9.42861 12.235C8.8053 12.4927 8.13723 12.6249 7.46268 12.6242H7.45966C6.44386 12.6242 5.45086 12.3231 4.60626 11.7591C3.93023 11.3077 3.37358 10.704 2.97896 10.0001H0.445313Z" fill="#C9CFD4"/>
<rect x="0.75" y="0.75" width="9.33332" height="8.49999" stroke="#C9CFD4" stroke-width="1.5" stroke-dasharray="2 2"/>
</svg>
