<svg width="24" height="24" viewBox="0 0 24 24" fill="none" xmlns="http://www.w3.org/2000/svg">
<g opacity="0.1">
<path d="M17.1685 15.1147H16.0882L15.7051 14.7451C17.211 12.9944 17.9795 10.7286 17.8494 8.42352C17.7193 6.11848 16.7006 3.95349 15.0072 2.3831C13.3138 0.81272 11.0775 -0.0408943 8.76775 0.00150729C6.45802 0.0439089 4.25457 0.979017 2.62005 2.61049C0.985521 4.24197 0.0470604 6.44292 0.00172227 8.75118C-0.0436159 11.0594 0.807689 13.2955 2.37689 14.9898C3.94609 16.6841 6.11113 17.705 8.41741 17.8379C10.7237 17.9709 12.9918 17.2056 14.7456 15.7029L15.1153 16.0857V17.1727L21.9613 24L24 21.9613L17.1685 15.1147ZM8.95096 15.1147C7.732 15.1147 6.5404 14.7535 5.52687 14.0766C4.51334 13.3998 3.7234 12.4379 3.25692 11.3124C2.79044 10.1869 2.66839 8.94842 2.9062 7.75361C3.144 6.55879 3.73099 5.46129 4.59293 4.59987C5.45486 3.73846 6.55303 3.15184 7.74858 2.91418C8.94412 2.67651 10.1833 2.79848 11.3095 3.26467C12.4357 3.73086 13.3982 4.52035 14.0755 5.53326C14.7527 6.54618 15.1141 7.73704 15.1141 8.95526C15.1156 9.76423 14.9573 10.5655 14.6483 11.3132C14.3393 12.0609 13.8857 12.7403 13.3135 13.3125C12.7413 13.8847 12.0617 14.3385 11.3137 14.6477C10.5657 14.957 9.76404 15.1157 8.95458 15.1147H8.95096ZM5 8H13V10H5V8Z" fill="#C9CFD4"/>
</g>
</svg>
