<svg width="20" height="20" viewBox="0 0 20 20" fill="none" xmlns="http://www.w3.org/2000/svg">
<path d="M14.3009 12.5828H13.397L13.0773 12.2741C14.3297 10.8153 14.968 8.9282 14.8583 7.00896C14.7485 5.08971 13.8993 3.2876 12.4888 1.98099C11.0783 0.674373 9.21629 -0.0351137 7.2937 0.00146966C5.3711 0.038053 3.53744 0.817874 2.17772 2.1772C0.817986 3.53653 0.0379421 5.36963 0.00134798 7.29166C-0.0352462 9.21369 0.674458 11.0751 1.98146 12.4852C3.28846 13.8953 5.0911 14.7443 7.01091 14.854C8.93073 14.9637 10.8184 14.3255 12.2776 13.0735L12.5864 13.3931V14.2968L18.2973 20.0001L20 18.298L14.3009 12.5828ZM7.44605 12.5828C6.42918 12.5828 5.43514 12.2814 4.58965 11.7166C3.74415 11.1519 3.08516 10.3491 2.69602 9.40994C2.30688 8.47075 2.20507 7.43728 2.40346 6.44024C2.60184 5.44321 3.0915 4.52738 3.81054 3.80856C4.52957 3.08973 5.44568 2.6002 6.44302 2.40188C7.44035 2.20356 8.4741 2.30535 9.41357 2.69437C10.353 3.0834 11.156 3.74219 11.721 4.58744C12.2859 5.43268 12.5874 6.42642 12.5874 7.44299C12.5883 8.11822 12.456 8.78699 12.1979 9.411C11.9399 10.035 11.5612 10.602 11.0836 11.0794C10.606 11.5569 10.0388 11.9355 9.41464 12.1935C8.79045 12.4514 8.12148 12.5838 7.44605 12.5828Z" fill="#C9CFD4"/>
<path d="M10.8327 8.16658H8.1651V10.8335H6.83245V8.16658H4.16602V6.83372H6.83245V4.16681H8.1651V6.83372H10.8315L10.8327 8.16658Z" fill="#C9CFD4"/>
</svg>
