<svg width="24" height="24" viewBox="0 0 24 24" fill="none" xmlns="http://www.w3.org/2000/svg">
<g opacity="0.1">
<path d="M11.1055 9.18L11.1143 3.54L8.59428 6.06L7.2784 4.74L12.0184 0L16.7436 4.74L15.4236 6.06L12.9115 3.54L12.9027 9.18H11.1055ZM11.9809 24L7.1062 19.11L8.4262 17.79L11.0879 20.46L11.0967 14.79H12.8939L12.8851 20.46L15.5551 17.79L16.871 19.11L11.9809 24ZM19.241 16.74L17.9251 15.42L20.4451 12.9H14.8139L14.8167 11.1H20.4479L17.9358 8.58L19.2558 7.26L23.981 12L19.241 16.74ZM4.74359 16.74L0.0183739 12L4.78839 7.23L6.10427 8.55L3.55426 11.1H9.21543L9.21262 12.9H3.55145L6.06359 15.42L4.74359 16.74Z" fill="#C9CFD4"/>
</g>
</svg>

